<svg width="48" height="38" viewBox="0 0 48 38" fill="none" xmlns="http://www.w3.org/2000/svg">
  <path d="M28.5003 36.0584C29.0366 36.0584 29.4714 36.4932 29.4714 37.0295C29.4594 37.5434 29.0293 38.0001 28.5003 38.0006H21.3226C20.7863 38.0006 20.3515 37.5658 20.3515 37.0295C20.3755 36.4779 20.7077 36.062 21.3226 36.0584H28.5003ZM10.5977 34.0317C11.134 34.0317 11.5688 34.4665 11.5688 35.0028C11.5583 35.5743 11.1458 35.9704 10.5977 35.9739H3.41996C2.8837 35.9739 2.44885 35.539 2.44885 35.0028C2.46078 34.4891 2.88441 34.0386 3.41996 34.0317H10.5977ZM2.65993 13.765C3.42922 13.765 4.05322 14.3889 4.05322 15.1583C4.05453 15.9665 3.42976 16.5469 2.65993 16.5516H1.39329C0.624006 16.5516 0 15.9275 0 15.1583C0.00112386 14.3652 0.675027 13.771 1.39329 13.765H2.65993ZM18.4516 0.000976562C19.0815 0.000976562 19.5916 0.510997 19.5916 1.14094C19.5731 1.80228 19.0866 2.27675 18.4516 2.2809H14.6516C14.0217 2.2809 13.5117 1.77088 13.5117 1.14094C13.5189 0.536675 14.1142 0.00490027 14.6516 0.000976562H18.4516Z" fill="#F8D46E" />
  <path d="M1.39948 8.19002C0.630181 8.19002 0.00618673 8.81406 0.00618673 9.58331C0.00169135 10.3652 0.681152 10.9609 1.39948 10.9766H9.67503C10.4443 10.9766 11.0683 11.6006 11.0683 12.3699C11.0578 13.1781 10.4449 13.7585 9.67503 13.7632H8.15496C7.38568 13.7632 6.76167 14.3872 6.76167 15.1566C6.77903 15.965 7.32504 16.5245 8.15496 16.5499H9.6749C10.4442 16.5499 11.0682 17.1739 11.0682 17.9432C11.0627 18.7252 10.5336 19.3207 9.6749 19.3366H3.67945C2.91015 19.3366 2.28616 19.9606 2.28616 20.7299C2.30349 21.5381 2.92303 22.1384 3.67945 22.1232H9.67503C10.4443 22.1232 11.0683 22.7472 11.0683 23.5166C11.0293 24.3052 10.3934 24.894 9.67503 24.9099H4.98247C4.20136 24.9099 3.53852 25.5491 3.5528 26.3302C3.56714 27.0869 4.18527 27.6966 4.94609 27.6966H17.1441V8.17114L1.39948 8.19002Z" fill="#F8D46E" />
  <path d="M11.4235 17.7362C11.4235 21.4909 12.6997 24.9474 14.8413 27.6967H17.2143V8.17126L14.5371 8.17951C12.5797 10.86 11.4235 14.1629 11.4235 17.7361V17.7362Z" fill="black" fill-opacity="0.1" />
  <path d="M27.5653 32.1595C35.5201 32.1595 41.9688 25.7109 41.9688 17.756C41.9688 9.8012 35.5201 3.35254 27.5653 3.35254C19.6105 3.35254 13.1618 9.8012 13.1618 17.756C13.1618 25.7109 19.6105 32.1595 27.5653 32.1595Z" fill="#F0F0F0" />
  <path d="M13.1618 17.756C13.1618 9.8012 19.6105 3.35254 27.5653 3.35254C35.5201 3.35254 41.9688 9.8012 41.9688 17.756H13.1618Z" fill="#FE4566" />
  <path d="M13.204 16.6385C13.1757 17.0073 13.1613 17.38 13.1613 17.7561C13.1613 18.2167 13.1829 18.6723 13.2253 19.1219H41.9043C41.9467 18.6723 41.9683 18.2167 41.9683 17.7561C41.9683 17.38 41.9539 17.0073 41.9256 16.6385H13.2043H13.204Z" fill="#606060" />
  <path d="M27.5653 22.5986C30.2398 22.5986 32.4079 20.4305 32.4079 17.756C32.4079 15.0815 30.2398 12.9135 27.5653 12.9135C24.8909 12.9135 22.7228 15.0815 22.7228 17.756C22.7228 20.4305 24.8909 22.5986 27.5653 22.5986Z" fill="#606060" />
  <path d="M22.7228 17.756C22.7228 20.4304 24.8909 22.5985 27.5653 22.5985C29.1426 22.5985 30.5439 21.8443 31.4281 20.6769C31.181 20.7158 30.9276 20.736 30.6695 20.736C27.9951 20.736 25.827 18.5679 25.827 15.8935C25.827 14.7963 26.1918 13.7845 26.8068 12.9725C24.4927 13.3366 22.7228 15.3395 22.7228 17.756Z" fill="black" fill-opacity="0.1" />
  <path d="M27.5653 20.3635C29.0054 20.3635 30.1728 19.1961 30.1728 17.756C30.1728 16.3159 29.0054 15.1484 27.5653 15.1484C26.1252 15.1484 24.9578 16.3159 24.9578 17.756C24.9578 19.1961 26.1252 20.3635 27.5653 20.3635Z" fill="#F0F0F0" />
  <path d="M24.9578 17.756C24.9578 19.1961 26.1252 20.3635 27.5653 20.3635C28.4286 20.3635 29.1939 19.9439 29.6684 19.2976C29.4718 19.3451 29.2665 19.3701 29.0553 19.3701C27.6152 19.3701 26.4478 18.2027 26.4478 16.7626C26.4478 16.1859 26.635 15.6528 26.9521 15.2209C25.8079 15.4967 24.9578 16.5271 24.9578 17.756Z" fill="black" fill-opacity="0.1" />
  <path d="M13.1618 17.756C13.1618 25.7108 19.6105 32.1595 27.5653 32.1595C30.2148 32.1595 32.6972 31.4442 34.8299 30.196C33.8108 30.4246 32.7509 30.5453 31.6628 30.5453C23.708 30.5453 17.2593 24.0966 17.2593 16.1418C17.2593 10.8365 20.1278 6.20104 24.3983 3.70142C17.967 5.14437 13.1618 10.8889 13.1618 17.756Z" fill="black" fill-opacity="0.1" />
</svg>